G04 #@! TF.GenerationSoftware,KiCad,Pcbnew,5.1.2-f72e74a~84~ubuntu18.04.1*
G04 #@! TF.CreationDate,2019-07-30T17:28:06-04:00*
G04 #@! TF.ProjectId,kvm-base,6b766d2d-6261-4736-952e-6b696361645f,rev?*
G04 #@! TF.SameCoordinates,Original*
G04 #@! TF.FileFunction,Copper,L4,Bot*
G04 #@! TF.FilePolarity,Positive*
%FSLAX46Y46*%
G04 Gerber Fmt 4.6, Leading zero omitted, Abs format (unit mm)*
G04 Created by KiCad (PCBNEW 5.1.2-f72e74a~84~ubuntu18.04.1) date 2019-07-30 17:28:06*
%MOMM*%
%LPD*%
G04 APERTURE LIST*
%ADD10C,0.700000*%
%ADD11C,4.400000*%
%ADD12O,2.700000X1.500000*%
%ADD13O,3.300000X1.500000*%
%ADD14R,0.300000X2.600000*%
%ADD15O,1.500000X2.700000*%
%ADD16O,1.500000X3.300000*%
%ADD17C,1.600000*%
%ADD18C,3.000000*%
%ADD19O,3.500000X1.500000*%
%ADD20R,1.700000X1.700000*%
%ADD21O,1.700000X1.700000*%
%ADD22R,1.500000X1.500000*%
%ADD23C,1.500000*%
%ADD24C,0.800000*%
%ADD25C,0.250000*%
%ADD26C,0.127000*%
%ADD27C,0.203200*%
G04 APERTURE END LIST*
D10*
X76166726Y-101833274D03*
X75000000Y-101350000D03*
X73833274Y-101833274D03*
X73350000Y-103000000D03*
X73833274Y-104166726D03*
X75000000Y-104650000D03*
X76166726Y-104166726D03*
X76650000Y-103000000D03*
D11*
X75000000Y-103000000D03*
X75000000Y-53000000D03*
D10*
X76650000Y-53000000D03*
X76166726Y-54166726D03*
X75000000Y-54650000D03*
X73833274Y-54166726D03*
X73350000Y-53000000D03*
X73833274Y-51833274D03*
X75000000Y-51350000D03*
X76166726Y-51833274D03*
X42166726Y-69833274D03*
X41000000Y-69350000D03*
X39833274Y-69833274D03*
X39350000Y-71000000D03*
X39833274Y-72166726D03*
X41000000Y-72650000D03*
X42166726Y-72166726D03*
X42650000Y-71000000D03*
D11*
X41000000Y-71000000D03*
X115000000Y-94000000D03*
D10*
X116650000Y-94000000D03*
X116166726Y-95166726D03*
X115000000Y-95650000D03*
X113833274Y-95166726D03*
X113350000Y-94000000D03*
X113833274Y-92833274D03*
X115000000Y-92350000D03*
X116166726Y-92833274D03*
X116166726Y-28833274D03*
X115000000Y-28350000D03*
X113833274Y-28833274D03*
X113350000Y-30000000D03*
X113833274Y-31166726D03*
X115000000Y-31650000D03*
X116166726Y-31166726D03*
X116650000Y-30000000D03*
D11*
X115000000Y-30000000D03*
D12*
X24280000Y-35750000D03*
X24280000Y-21250000D03*
D13*
X30240000Y-35750000D03*
X30240000Y-21250000D03*
D12*
X24280000Y-52750000D03*
X24280000Y-38250000D03*
D13*
X30240000Y-52750000D03*
X30240000Y-38250000D03*
D12*
X24280000Y-69250000D03*
X24280000Y-54750000D03*
D13*
X30240000Y-69250000D03*
X30240000Y-54750000D03*
D14*
X54500000Y-31000000D03*
X55000000Y-31000000D03*
X55500000Y-31000000D03*
X56000000Y-31000000D03*
X56500000Y-31000000D03*
X57000000Y-31000000D03*
X57500000Y-31000000D03*
X58000000Y-31000000D03*
X58500000Y-31000000D03*
X59000000Y-31000000D03*
X59500000Y-31000000D03*
X60000000Y-31000000D03*
X60500000Y-31000000D03*
X61000000Y-31000000D03*
X61500000Y-31000000D03*
X62000000Y-31000000D03*
X62500000Y-31000000D03*
X63000000Y-31000000D03*
D15*
X66250000Y-24280000D03*
X51750000Y-24280000D03*
D16*
X66250000Y-30240000D03*
X51750000Y-30240000D03*
D14*
X63500000Y-31000000D03*
D12*
X24280000Y-86750000D03*
X24280000Y-72250000D03*
D13*
X30240000Y-86750000D03*
X30240000Y-72250000D03*
D12*
X24280000Y-103750000D03*
X24280000Y-89250000D03*
D13*
X30240000Y-103750000D03*
X30240000Y-89250000D03*
D12*
X24280000Y-120750000D03*
X24280000Y-106250000D03*
D13*
X30240000Y-120750000D03*
X30240000Y-106250000D03*
D14*
X64500000Y-111000000D03*
X64000000Y-111000000D03*
X63500000Y-111000000D03*
X63000000Y-111000000D03*
X62500000Y-111000000D03*
X62000000Y-111000000D03*
X61500000Y-111000000D03*
X61000000Y-111000000D03*
X60500000Y-111000000D03*
X60000000Y-111000000D03*
X59500000Y-111000000D03*
X59000000Y-111000000D03*
X58500000Y-111000000D03*
X58000000Y-111000000D03*
X57500000Y-111000000D03*
X57000000Y-111000000D03*
X56500000Y-111000000D03*
X56000000Y-111000000D03*
D15*
X52750000Y-117720000D03*
X67250000Y-117720000D03*
D16*
X52750000Y-111760000D03*
X67250000Y-111760000D03*
D14*
X55500000Y-111000000D03*
D17*
X83300000Y-113220000D03*
X83300000Y-113220000D03*
X80700000Y-113220000D03*
X85400000Y-113220000D03*
X78600000Y-113220000D03*
X78600000Y-110720000D03*
X85400000Y-110720000D03*
D18*
X75150000Y-116500000D03*
X88850000Y-116500000D03*
D19*
X82000000Y-117150000D03*
D20*
X95500000Y-90000000D03*
D21*
X92960000Y-90000000D03*
X95500000Y-92540000D03*
X92960000Y-92540000D03*
X95500000Y-95080000D03*
X92960000Y-95080000D03*
X95500000Y-97620000D03*
X92960000Y-97620000D03*
D18*
X74430000Y-36350000D03*
X87570000Y-36350000D03*
D22*
X84500000Y-36000000D03*
D23*
X82000000Y-36000000D03*
X80000000Y-36000000D03*
X77500000Y-36000000D03*
D18*
X87570000Y-30670000D03*
X74430000Y-30670000D03*
D23*
X84500000Y-33380000D03*
X82000000Y-33380000D03*
X80000000Y-33380000D03*
X77500000Y-33380000D03*
X96000000Y-33380000D03*
X98500000Y-33380000D03*
X100500000Y-33380000D03*
X103000000Y-33380000D03*
D18*
X92930000Y-30670000D03*
X106070000Y-30670000D03*
D23*
X96000000Y-36000000D03*
X98500000Y-36000000D03*
X100500000Y-36000000D03*
D22*
X103000000Y-36000000D03*
D18*
X106070000Y-36350000D03*
X92930000Y-36350000D03*
D24*
X81000000Y-96000000D03*
X111000000Y-106500000D03*
X103500000Y-104500000D03*
X104000000Y-118000000D03*
X55000000Y-33500000D03*
X95000000Y-61500000D03*
X93750000Y-66000000D03*
X43750000Y-97750000D03*
X46750000Y-92750000D03*
X43750000Y-46750000D03*
X46750000Y-41750000D03*
X116500000Y-73000000D03*
X116250000Y-60000000D03*
X116250000Y-47000000D03*
X101250000Y-42500000D03*
X82250000Y-38250000D03*
X94000000Y-40500000D03*
X52750000Y-86500000D03*
X44000000Y-36500000D03*
X47600000Y-32950000D03*
X60750000Y-42750000D03*
X64500000Y-47000000D03*
X43500000Y-86500000D03*
X46000000Y-80000000D03*
X47250000Y-65000000D03*
X45250000Y-57500000D03*
X64500000Y-99750000D03*
X57750000Y-101500000D03*
X59400000Y-119600000D03*
X45800000Y-110400000D03*
X48800000Y-115600000D03*
X67976472Y-114976472D03*
X96500000Y-41000000D03*
X79250000Y-41500000D03*
X83750000Y-38250000D03*
X87750000Y-54000000D03*
X53750000Y-26000000D03*
X81000000Y-97500000D03*
X109500000Y-105000000D03*
X90750000Y-65750000D03*
X65000000Y-62250000D03*
X64500000Y-80000000D03*
X43750000Y-99250000D03*
X46750000Y-101250000D03*
X49750000Y-101250000D03*
X52250000Y-99750000D03*
X52250000Y-96750000D03*
X47000000Y-94250000D03*
X43750000Y-48250000D03*
X46750000Y-50250000D03*
X49750000Y-50250000D03*
X52250000Y-48750000D03*
X52250000Y-45750000D03*
X47000000Y-43250000D03*
X41000000Y-51250000D03*
X41000000Y-102250000D03*
X83250000Y-98500000D03*
X81000000Y-99250000D03*
X82250000Y-99250000D03*
X27500000Y-119250000D03*
X26750000Y-22750000D03*
X57000000Y-29000000D03*
X56750000Y-35000000D03*
X55500000Y-29000000D03*
X55500000Y-35000000D03*
X52750000Y-33750000D03*
X65500000Y-111000000D03*
X63500000Y-113500000D03*
X62000000Y-113500000D03*
X52250000Y-50000000D03*
X51500000Y-42500000D03*
X53250000Y-51500000D03*
X51750000Y-43750000D03*
X79000000Y-89750000D03*
X79000000Y-85000000D03*
X95750000Y-67250000D03*
X95750000Y-60500000D03*
X57998400Y-33750000D03*
X59001600Y-33750000D03*
X59498400Y-34760983D03*
X60501600Y-34760983D03*
X60998400Y-33643896D03*
X62001600Y-33643896D03*
X62498400Y-34750000D03*
X63501600Y-34750000D03*
X62500000Y-108001600D03*
X62500000Y-106998400D03*
X60154685Y-114645315D03*
X59445315Y-115354685D03*
X58954685Y-117045315D03*
X58245315Y-117754685D03*
X56501600Y-120750000D03*
X55498400Y-120750000D03*
D25*
X55500000Y-31000000D02*
X55500000Y-33000000D01*
X55500000Y-33000000D02*
X55000000Y-33500000D01*
X61497999Y-29447999D02*
X61500000Y-29450000D01*
X61500000Y-29450000D02*
X61500000Y-31000000D01*
X60000000Y-29450000D02*
X60002001Y-29447999D01*
X60000000Y-31000000D02*
X60000000Y-29450000D01*
X58502001Y-29447999D02*
X60447999Y-29447999D01*
X58500000Y-29450000D02*
X58502001Y-29447999D01*
X58500000Y-31000000D02*
X58500000Y-29450000D01*
X60002001Y-29447999D02*
X60447999Y-29447999D01*
X60447999Y-29447999D02*
X61497999Y-29447999D01*
X61502001Y-29447999D02*
X61500000Y-29450000D01*
X63000000Y-29596398D02*
X62851601Y-29447999D01*
X62851601Y-29447999D02*
X61502001Y-29447999D01*
X63000000Y-31000000D02*
X63000000Y-29596398D01*
X65250000Y-30240000D02*
X66250000Y-30240000D01*
X64457999Y-29447999D02*
X65250000Y-30240000D01*
X62851601Y-29447999D02*
X64457999Y-29447999D01*
X67250000Y-110860000D02*
X67250000Y-111760000D01*
X65837999Y-109447999D02*
X67250000Y-110860000D01*
X63648399Y-109447999D02*
X65837999Y-109447999D01*
X63500000Y-109596398D02*
X63648399Y-109447999D01*
X63500000Y-111000000D02*
X63500000Y-109596398D01*
X57497999Y-109447999D02*
X57500000Y-109450000D01*
X56002001Y-109447999D02*
X57497999Y-109447999D01*
X57500000Y-109450000D02*
X57500000Y-111000000D01*
X56000000Y-109450000D02*
X56002001Y-109447999D01*
X59000000Y-109450000D02*
X59000000Y-111000000D01*
X58997999Y-109447999D02*
X59000000Y-109450000D01*
X57648399Y-109447999D02*
X58997999Y-109447999D01*
X57500000Y-109596398D02*
X57648399Y-109447999D01*
X57500000Y-111000000D02*
X57500000Y-109596398D01*
X60806686Y-118193314D02*
X59400000Y-119600000D01*
X60806686Y-114332354D02*
X60806686Y-118193314D01*
X60500000Y-111000000D02*
X60500000Y-114025668D01*
X60500000Y-114025668D02*
X60806686Y-114332354D01*
X52750000Y-110860000D02*
X52750000Y-111760000D01*
X54162001Y-109447999D02*
X52750000Y-110860000D01*
X55997999Y-109447999D02*
X54162001Y-109447999D01*
X56000000Y-109450000D02*
X55997999Y-109447999D01*
X56000000Y-111000000D02*
X56000000Y-109450000D01*
X64000000Y-112550000D02*
X66426472Y-114976472D01*
X64000000Y-111000000D02*
X64000000Y-112550000D01*
X66426472Y-114976472D02*
X67976472Y-114976472D01*
X99000000Y-41000000D02*
X103000000Y-37000000D01*
X103000000Y-37000000D02*
X103000000Y-36000000D01*
X96500000Y-41000000D02*
X99000000Y-41000000D01*
X79250000Y-41500000D02*
X80500000Y-41500000D01*
X80500000Y-41500000D02*
X83750000Y-38250000D01*
X83750000Y-36750000D02*
X84500000Y-36000000D01*
X83750000Y-38250000D02*
X83750000Y-36750000D01*
X95500000Y-90000000D02*
X95500000Y-88900000D01*
X87750000Y-81150000D02*
X87750000Y-54000000D01*
X95500000Y-88900000D02*
X87750000Y-81150000D01*
X96000000Y-41500000D02*
X96500000Y-41000000D01*
X79250000Y-41500000D02*
X96000000Y-41500000D01*
X53750000Y-28200000D02*
X53750000Y-26000000D01*
X55000000Y-31000000D02*
X55000000Y-29450000D01*
X55000000Y-29450000D02*
X53750000Y-28200000D01*
X94650001Y-93389999D02*
X95500000Y-92540000D01*
X94397999Y-93642001D02*
X94650001Y-93389999D01*
X92767037Y-93642001D02*
X94397999Y-93642001D01*
X87909038Y-98500000D02*
X92767037Y-93642001D01*
X83250000Y-98500000D02*
X87909038Y-98500000D01*
X87710000Y-92540000D02*
X92960000Y-92540000D01*
X81000000Y-99250000D02*
X87710000Y-92540000D01*
X92767037Y-96182001D02*
X94397999Y-96182001D01*
X94650001Y-95929999D02*
X95500000Y-95080000D01*
X94397999Y-96182001D02*
X94650001Y-95929999D01*
X89699038Y-99250000D02*
X92767037Y-96182001D01*
X82250000Y-99250000D02*
X89699038Y-99250000D01*
X61500000Y-111000000D02*
X61500000Y-113035038D01*
X31057056Y-119250000D02*
X27500000Y-119250000D01*
X31129066Y-119322010D02*
X31057056Y-119250000D01*
X61347999Y-113187039D02*
X61347999Y-120652001D01*
X61500000Y-113035038D02*
X61347999Y-113187039D01*
X61347999Y-120652001D02*
X60400000Y-121600000D01*
X33407056Y-121600000D02*
X31207056Y-119400000D01*
X60400000Y-121600000D02*
X33407056Y-121600000D01*
X52449999Y-22350001D02*
X27149999Y-22350001D01*
X57652001Y-27552003D02*
X52449999Y-22350001D01*
X57652001Y-29297999D02*
X57652001Y-27552003D01*
X27149999Y-22350001D02*
X26750000Y-22750000D01*
X57500000Y-29450000D02*
X57652001Y-29297999D01*
X57500000Y-31000000D02*
X57500000Y-29450000D01*
X56500000Y-31000000D02*
X56500000Y-29500000D01*
X56500000Y-29500000D02*
X57000000Y-29000000D01*
X56500000Y-34750000D02*
X56750000Y-35000000D01*
X56500000Y-31000000D02*
X56500000Y-34750000D01*
X56000000Y-31000000D02*
X56000000Y-29500000D01*
X56000000Y-29500000D02*
X55500000Y-29000000D01*
X56000000Y-34500000D02*
X56000000Y-31000000D01*
X55500000Y-35000000D02*
X56000000Y-34500000D01*
X54500000Y-32000000D02*
X54500000Y-31000000D01*
X52750000Y-33750000D02*
X54500000Y-32000000D01*
X64500000Y-111000000D02*
X65500000Y-111000000D01*
X63000000Y-113000000D02*
X63000000Y-111000000D01*
X63500000Y-113500000D02*
X63000000Y-113000000D01*
X62500000Y-111000000D02*
X62500000Y-113000000D01*
X62500000Y-113000000D02*
X62000000Y-113500000D01*
X51097999Y-42902001D02*
X51500000Y-42500000D01*
X52250000Y-50000000D02*
X51097999Y-48847999D01*
X51097999Y-48847999D02*
X51097999Y-42902001D01*
X53250000Y-51500000D02*
X53250000Y-45250000D01*
X53250000Y-45250000D02*
X51750000Y-43750000D01*
D26*
X79000000Y-89750000D02*
X79000000Y-85000000D01*
X95750000Y-67250000D02*
X95750000Y-60500000D01*
D27*
X58296800Y-33246801D02*
X58296800Y-33451600D01*
X58296800Y-33451600D02*
X57998400Y-33750000D01*
X58000000Y-32950001D02*
X58296800Y-33246801D01*
X58000000Y-31000000D02*
X58000000Y-32950001D01*
X59000000Y-31000000D02*
X59000000Y-32950001D01*
X58703200Y-33246801D02*
X58703200Y-33451600D01*
X59000000Y-32950001D02*
X58703200Y-33246801D01*
X58703200Y-33451600D02*
X59001600Y-33750000D01*
X59796800Y-33246801D02*
X59796800Y-34462583D01*
X59500000Y-31000000D02*
X59500000Y-32950001D01*
X59500000Y-32950001D02*
X59796800Y-33246801D01*
X59796800Y-34462583D02*
X59498400Y-34760983D01*
X60500000Y-31000000D02*
X60500000Y-32950001D01*
X60500000Y-32950001D02*
X60203200Y-33246801D01*
X60203200Y-33246801D02*
X60203200Y-34462583D01*
X60203200Y-34462583D02*
X60501600Y-34760983D01*
X61296800Y-33345496D02*
X60998400Y-33643896D01*
X61296800Y-33246801D02*
X61296800Y-33345496D01*
X61000000Y-32950001D02*
X61296800Y-33246801D01*
X61000000Y-31000000D02*
X61000000Y-32950001D01*
X61703200Y-33246801D02*
X61703200Y-33345496D01*
X62000000Y-31000000D02*
X62000000Y-32950001D01*
X62000000Y-32950001D02*
X61703200Y-33246801D01*
X61703200Y-33345496D02*
X62001600Y-33643896D01*
X62796800Y-34451600D02*
X62498400Y-34750000D01*
X62796800Y-33246801D02*
X62796800Y-34451600D01*
X62500000Y-32950001D02*
X62796800Y-33246801D01*
X62500000Y-31000000D02*
X62500000Y-32950001D01*
X63500000Y-32950001D02*
X63203200Y-33246801D01*
X63500000Y-31000000D02*
X63500000Y-32950001D01*
X63203200Y-33246801D02*
X63203200Y-34451600D01*
X63203200Y-34451600D02*
X63501600Y-34750000D01*
X61000000Y-109049999D02*
X60703200Y-108753199D01*
X61000000Y-111000000D02*
X61000000Y-109049999D01*
X60703200Y-108753199D02*
X60703200Y-108084170D01*
X61084170Y-107703200D02*
X62201600Y-107703200D01*
X60703200Y-108084170D02*
X61084170Y-107703200D01*
X62201600Y-107703200D02*
X62500000Y-108001600D01*
X60000000Y-111000000D02*
X60000000Y-109049999D01*
X60000000Y-109049999D02*
X60296800Y-108753199D01*
X60296800Y-108753199D02*
X60296800Y-107915830D01*
X60296800Y-107915830D02*
X60915830Y-107296800D01*
X60915830Y-107296800D02*
X62201600Y-107296800D01*
X62201600Y-107296800D02*
X62500000Y-106998400D01*
X59500000Y-112950001D02*
X59203200Y-113246801D01*
X59500000Y-111000000D02*
X59500000Y-112950001D01*
X59732684Y-114645315D02*
X60154685Y-114645315D01*
X59203200Y-114115831D02*
X59732684Y-114645315D01*
X59203200Y-113246801D02*
X59203200Y-114115831D01*
X58500000Y-111000000D02*
X58500000Y-112950001D01*
X58500000Y-112950001D02*
X58796800Y-113246801D01*
X58796800Y-113246801D02*
X58796800Y-114284169D01*
X58796800Y-114284169D02*
X59445315Y-114932684D01*
X59445315Y-114932684D02*
X59445315Y-115354685D01*
X58000000Y-112950001D02*
X58000000Y-111000000D01*
X57703200Y-116215831D02*
X57703200Y-113246801D01*
X58532684Y-117045315D02*
X57703200Y-116215831D01*
X58954685Y-117045315D02*
X58532684Y-117045315D01*
X57703200Y-113246801D02*
X58000000Y-112950001D01*
X57000000Y-112950001D02*
X57000000Y-111000000D01*
X57296800Y-113246801D02*
X57000000Y-112950001D01*
X57296800Y-116384169D02*
X57296800Y-113246801D01*
X58245315Y-117754685D02*
X58245315Y-117332684D01*
X58245315Y-117332684D02*
X57296800Y-116384169D01*
X56500000Y-112950001D02*
X56500000Y-111000000D01*
X56203200Y-113246801D02*
X56500000Y-112950001D01*
X56203200Y-120451600D02*
X56501600Y-120750000D01*
X56203200Y-113246801D02*
X56203200Y-120451600D01*
X55796800Y-113246801D02*
X55500000Y-112950001D01*
X55500000Y-112950001D02*
X55500000Y-111000000D01*
X55796800Y-120451600D02*
X55498400Y-120750000D01*
X55796800Y-113246801D02*
X55796800Y-120451600D01*
M02*
