M48
; DRILL file {KiCad 5.1.2-f72e74a~84~ubuntu18.04.1} date Tue 30 Jul 2019 05:28:10 PM EDT
; FORMAT={-:-/ absolute / inch / decimal}
; #@! TF.CreationDate,2019-07-30T17:28:10-04:00
; #@! TF.GenerationSoftware,Kicad,Pcbnew,5.1.2-f72e74a~84~ubuntu18.04.1
; #@! TF.FileFunction,Plated,1,4,PTH
FMAT,2
INCH
T1C0.0157
T2C0.0354
T3C0.0362
T4C0.0394
T5C0.0433
T6C0.0866
T7C0.0906
%
G90
G05
T1
X1.0531Y-0.8957
X1.0827Y-4.6949
X1.6142Y-2.0177
X1.6142Y-4.0256
X1.7126Y-3.4055
X1.7224Y-1.8406
X1.7224Y-1.8996
X1.7224Y-3.8484
X1.7224Y-3.9075
X1.7323Y-1.437
X1.7815Y-2.2638
X1.8031Y-4.3465
X1.811Y-3.1496
X1.8406Y-1.6437
X1.8406Y-1.9783
X1.8406Y-3.6516
X1.8406Y-3.9862
X1.8504Y-1.7028
X1.8504Y-3.7106
X1.8602Y-2.5591
X1.874Y-1.2972
X1.9213Y-4.5512
X1.9587Y-1.9783
X1.9587Y-3.9862
X2.0276Y-1.6732
X2.0374Y-1.7224
X2.0571Y-1.8012
X2.0571Y-1.9193
X2.0571Y-1.9685
X2.0571Y-3.8091
X2.0571Y-3.9272
X2.0768Y-1.3287
X2.0768Y-3.4055
X2.0965Y-2.0276
X2.1161Y-1.0236
X2.1654Y-1.3189
X2.185Y-4.7539
X2.185Y-1.1417
X2.185Y-1.378
X2.2245Y-4.7539
X2.2343Y-1.378
X2.2441Y-1.1417
X2.2736Y-3.9961
X2.2834Y-1.3287
X2.2931Y-4.636
X2.3211Y-4.6081
X2.3229Y-1.3287
X2.3386Y-4.7087
X2.3404Y-4.5415
X2.3425Y-1.3685
X2.3683Y-4.5136
X2.382Y-1.3685
X2.3917Y-1.6831
X2.4015Y-1.3246
X2.4409Y-4.4685
X2.441Y-1.3246
X2.4606Y-1.3681
X2.4606Y-4.2125
X2.4606Y-4.252
X2.5Y-4.4685
X2.5001Y-1.3681
X2.5394Y-1.8504
X2.5394Y-3.1496
X2.5394Y-3.9272
X2.5591Y-2.4508
X2.5787Y-4.3701
X2.6762Y-4.5266
X3.1102Y-3.3465
X3.1102Y-3.5335
X3.1201Y-1.6339
X3.189Y-3.7795
X3.189Y-3.8386
X3.189Y-3.9075
X3.2382Y-1.5059
X3.2382Y-3.9075
X3.2776Y-3.878
X3.2972Y-1.5059
X3.4547Y-2.126
X3.5728Y-2.5886
X3.6909Y-2.5984
X3.7008Y-1.5945
X3.7402Y-2.4213
X3.7697Y-2.3819
X3.7697Y-2.6476
X3.7992Y-1.6142
X3.9862Y-1.6732
X4.0748Y-4.1142
X4.0945Y-4.6457
X4.311Y-4.1339
X4.3701Y-4.1929
X4.5768Y-1.8504
X4.5768Y-2.3622
X4.5866Y-2.874
X4.4626Y-1.1811
X4.4816Y-1.1352
X4.4816Y-1.227
X4.5276Y-1.1161
X4.5276Y-1.2461
X4.5735Y-1.1352
X4.5735Y-1.227
X4.5925Y-1.1811
X2.8878Y-4.0551
X2.9068Y-4.0092
X2.9068Y-4.1011
X2.9528Y-3.9902
X2.9528Y-4.1201
X2.9987Y-4.0092
X2.9987Y-4.1011
X3.0177Y-4.0551
X2.8878Y-2.0866
X2.9068Y-2.0407
X2.9068Y-2.1325
X2.9528Y-2.0217
X2.9528Y-2.1516
X2.9987Y-2.0407
X2.9987Y-2.1325
X3.0177Y-2.0866
X1.5492Y-2.7953
X1.5682Y-2.7493
X1.5682Y-2.8412
X1.6142Y-2.7303
X1.6142Y-2.8602
X1.6601Y-2.7493
X1.6601Y-2.8412
X1.6791Y-2.7953
X4.4626Y-3.7008
X4.4816Y-3.6549
X4.4816Y-3.7467
X4.5276Y-3.6358
X4.5276Y-3.7657
X4.5735Y-3.6549
X4.5735Y-3.7467
X4.5925Y-3.7008
T3
X3.7795Y-1.3142
X3.7795Y-1.4173
X3.878Y-1.3142
X3.878Y-1.4173
X3.9567Y-1.3142
X3.9567Y-1.4173
X4.0551Y-1.3142
X4.0551Y-1.4173
X3.0512Y-1.3142
X3.0512Y-1.4173
X3.1496Y-1.3142
X3.1496Y-1.4173
X3.2283Y-1.3142
X3.2283Y-1.4173
X3.3268Y-1.3142
X3.3268Y-1.4173
T4
X3.6598Y-3.5433
X3.6598Y-3.6433
X3.6598Y-3.7433
X3.6598Y-3.8433
X3.7598Y-3.5433
X3.7598Y-3.6433
X3.7598Y-3.7433
X3.7598Y-3.8433
T5
X3.0945Y-4.3591
X3.0945Y-4.4575
X3.1772Y-4.4575
X3.2795Y-4.4575
X3.2795Y-4.4575
X3.3622Y-4.3591
X3.3622Y-4.4575
T6
X4.5276Y-1.1811
X2.9528Y-4.0551
X2.9528Y-2.0866
X1.6142Y-2.7953
X4.5276Y-3.7008
T7
X3.6587Y-1.2075
X3.6587Y-1.4311
X4.176Y-1.2075
X4.176Y-1.4311
X2.9303Y-1.2075
X2.9303Y-1.4311
X3.4476Y-1.2075
X3.4476Y-1.4311
X2.9587Y-4.5866
X3.498Y-4.5866
T2
G00X0.9795Y-1.5059
M15
G01X0.9323Y-1.5059
M16
G05
G00X0.9795Y-2.0768
M15
G01X0.9323Y-2.0768
M16
G05
G00X1.226Y-1.5059
M15
G01X1.1551Y-1.5059
M16
G05
G00X1.226Y-2.0768
M15
G01X1.1551Y-2.0768
M16
G05
G00X2.0374Y-0.9323
M15
G01X2.0374Y-0.9795
M16
G05
G00X2.0374Y-1.1551
M15
G01X2.0374Y-1.226
M16
G05
G00X2.6083Y-0.9323
M15
G01X2.6083Y-0.9795
M16
G05
G00X2.6083Y-1.1551
M15
G01X2.6083Y-1.226
M16
G05
G00X0.9795Y-4.1831
M15
G01X0.9323Y-4.1831
M16
G05
G00X0.9795Y-4.7539
M15
G01X0.9323Y-4.7539
M16
G05
G00X1.226Y-4.1831
M15
G01X1.1551Y-4.1831
M16
G05
G00X1.226Y-4.7539
M15
G01X1.1551Y-4.7539
M16
G05
G00X0.9795Y-0.8366
M15
G01X0.9323Y-0.8366
M16
G05
G00X0.9795Y-1.4075
M15
G01X0.9323Y-1.4075
M16
G05
G00X1.226Y-0.8366
M15
G01X1.1551Y-0.8366
M16
G05
G00X1.226Y-1.4075
M15
G01X1.1551Y-1.4075
M16
G05
G00X2.0768Y-4.4354
M15
G01X2.0768Y-4.3646
M16
G05
G00X2.0768Y-4.6583
M15
G01X2.0768Y-4.611
M16
G05
G00X2.6476Y-4.4354
M15
G01X2.6476Y-4.3646
M16
G05
G00X2.6476Y-4.6583
M15
G01X2.6476Y-4.611
M16
G05
G00X0.9795Y-2.1555
M15
G01X0.9323Y-2.1555
M16
G05
G00X0.9795Y-2.7264
M15
G01X0.9323Y-2.7264
M16
G05
G00X1.226Y-2.1555
M15
G01X1.1551Y-2.1555
M16
G05
G00X1.226Y-2.7264
M15
G01X1.1551Y-2.7264
M16
G05
G00X0.9795Y-2.8445
M15
G01X0.9323Y-2.8445
M16
G05
G00X0.9795Y-3.4154
M15
G01X0.9323Y-3.4154
M16
G05
G00X1.226Y-2.8445
M15
G01X1.1551Y-2.8445
M16
G05
G00X1.226Y-3.4154
M15
G01X1.1551Y-3.4154
M16
G05
G00X0.9795Y-3.5138
M15
G01X0.9323Y-3.5138
M16
G05
G00X0.9795Y-4.0846
M15
G01X0.9323Y-4.0846
M16
G05
G00X1.226Y-3.5138
M15
G01X1.1551Y-3.5138
M16
G05
G00X1.226Y-4.0846
M15
G01X1.1551Y-4.0846
M16
G05
T4
G00X3.189Y-4.6122
M15
G01X3.2677Y-4.6122
M16
G05
T0
M30
